<mxfile host="app.diagrams.net" modified="2024-01-27T12:03:24.593Z" agent="Mozilla/5.0 (Windows NT 10.0; Win64; x64) AppleWebKit/537.36 (KHTML, like Gecko) Chrome/120.0.0.0 Safari/537.36" etag="LpQvZYJHEI9M4QcImk1V" version="23.0.2" type="github">
  <diagram name="第 1 页" id="utUN4S7U_KKpuwVbOOjt">
    <mxGraphModel dx="2261" dy="1915" grid="1" gridSize="10" guides="1" tooltips="1" connect="1" arrows="1" fold="1" page="1" pageScale="1" pageWidth="827" pageHeight="1169" math="0" shadow="0">
      <root>
        <mxCell id="0" />
        <mxCell id="1" parent="0" />
        <mxCell id="JWGeBvaVPIYcXlpfm2Vx-4" style="edgeStyle=orthogonalEdgeStyle;rounded=0;orthogonalLoop=1;jettySize=auto;html=1;exitX=0.5;exitY=1;exitDx=0;exitDy=0;entryX=0.5;entryY=0;entryDx=0;entryDy=0;" parent="1" source="JWGeBvaVPIYcXlpfm2Vx-1" target="JWGeBvaVPIYcXlpfm2Vx-2" edge="1">
          <mxGeometry relative="1" as="geometry" />
        </mxCell>
        <mxCell id="JWGeBvaVPIYcXlpfm2Vx-5" style="edgeStyle=orthogonalEdgeStyle;rounded=0;orthogonalLoop=1;jettySize=auto;html=1;exitX=0.5;exitY=1;exitDx=0;exitDy=0;" parent="1" source="JWGeBvaVPIYcXlpfm2Vx-1" target="JWGeBvaVPIYcXlpfm2Vx-3" edge="1">
          <mxGeometry relative="1" as="geometry" />
        </mxCell>
        <mxCell id="JWGeBvaVPIYcXlpfm2Vx-1" value="存储空间" style="rounded=0;whiteSpace=wrap;html=1;" parent="1" vertex="1">
          <mxGeometry x="-10" y="170" width="120" height="60" as="geometry" />
        </mxCell>
        <mxCell id="JWGeBvaVPIYcXlpfm2Vx-11" style="edgeStyle=orthogonalEdgeStyle;rounded=0;orthogonalLoop=1;jettySize=auto;html=1;exitX=0.5;exitY=1;exitDx=0;exitDy=0;entryX=0.5;entryY=0;entryDx=0;entryDy=0;" parent="1" source="JWGeBvaVPIYcXlpfm2Vx-2" target="JWGeBvaVPIYcXlpfm2Vx-12" edge="1">
          <mxGeometry relative="1" as="geometry">
            <mxPoint x="60" y="410" as="targetPoint" />
          </mxGeometry>
        </mxCell>
        <mxCell id="JWGeBvaVPIYcXlpfm2Vx-2" value="背包" style="rounded=0;whiteSpace=wrap;html=1;" parent="1" vertex="1">
          <mxGeometry x="-130" y="280" width="120" height="60" as="geometry" />
        </mxCell>
        <mxCell id="JWGeBvaVPIYcXlpfm2Vx-13" style="edgeStyle=orthogonalEdgeStyle;rounded=0;orthogonalLoop=1;jettySize=auto;html=1;exitX=0.5;exitY=1;exitDx=0;exitDy=0;entryX=0.5;entryY=0;entryDx=0;entryDy=0;" parent="1" source="JWGeBvaVPIYcXlpfm2Vx-3" target="JWGeBvaVPIYcXlpfm2Vx-12" edge="1">
          <mxGeometry relative="1" as="geometry" />
        </mxCell>
        <mxCell id="JWGeBvaVPIYcXlpfm2Vx-3" value="仓库" style="rounded=0;whiteSpace=wrap;html=1;" parent="1" vertex="1">
          <mxGeometry x="110" y="280" width="120" height="60" as="geometry" />
        </mxCell>
        <mxCell id="JWGeBvaVPIYcXlpfm2Vx-6" value="存储空间助手" style="rounded=0;whiteSpace=wrap;html=1;" parent="1" vertex="1">
          <mxGeometry x="-10" y="70" width="120" height="60" as="geometry" />
        </mxCell>
        <mxCell id="JWGeBvaVPIYcXlpfm2Vx-12" value="实例" style="rounded=0;whiteSpace=wrap;html=1;" parent="1" vertex="1">
          <mxGeometry y="420" width="120" height="60" as="geometry" />
        </mxCell>
        <mxCell id="JWGeBvaVPIYcXlpfm2Vx-14" value="存储空间限制，通过尺寸，重量来限制，每种不同的存储空间限制不同&lt;br&gt;一般来说，重量的上限高，而尺寸上限低" style="text;html=1;strokeColor=none;fillColor=none;align=center;verticalAlign=middle;whiteSpace=wrap;rounded=0;" parent="1" vertex="1">
          <mxGeometry x="110" y="160" width="210" height="80" as="geometry" />
        </mxCell>
        <mxCell id="JWGeBvaVPIYcXlpfm2Vx-15" value="重量" style="rounded=0;whiteSpace=wrap;html=1;" parent="1" vertex="1">
          <mxGeometry x="414" y="250" width="120" height="60" as="geometry" />
        </mxCell>
        <mxCell id="JWGeBvaVPIYcXlpfm2Vx-16" value="尺寸" style="rounded=0;whiteSpace=wrap;html=1;" parent="1" vertex="1">
          <mxGeometry x="534" y="250" width="120" height="60" as="geometry" />
        </mxCell>
        <mxCell id="JWGeBvaVPIYcXlpfm2Vx-18" value="重量统一单位为，两&lt;br&gt;1斤=10两" style="text;html=1;strokeColor=none;fillColor=none;align=center;verticalAlign=middle;whiteSpace=wrap;rounded=0;" parent="1" vertex="1">
          <mxGeometry x="408" y="320" width="126" height="30" as="geometry" />
        </mxCell>
        <mxCell id="JWGeBvaVPIYcXlpfm2Vx-19" value="尺寸统一单位为，立方厘米&lt;br&gt;1立方米=100立方厘米" style="text;html=1;strokeColor=none;fillColor=none;align=center;verticalAlign=middle;whiteSpace=wrap;rounded=0;" parent="1" vertex="1">
          <mxGeometry x="494" y="210" width="200" height="30" as="geometry" />
        </mxCell>
        <mxCell id="JWGeBvaVPIYcXlpfm2Vx-27" value="StorageOperateResult" style="swimlane;fontStyle=1;align=center;verticalAlign=top;childLayout=stackLayout;horizontal=1;startSize=26;horizontalStack=0;resizeParent=1;resizeParentMax=0;resizeLast=0;collapsible=1;marginBottom=0;whiteSpace=wrap;html=1;" parent="1" vertex="1">
          <mxGeometry x="410" y="690" width="390" height="138" as="geometry" />
        </mxCell>
        <mxCell id="JWGeBvaVPIYcXlpfm2Vx-28" value="+ status: int,&#x9;&lt;span style=&quot;border-color: var(--border-color);&quot;&gt;&lt;span style=&quot;white-space: pre;&quot;&gt;&amp;nbsp;&amp;nbsp;&amp;nbsp;&amp;nbsp;&lt;/span&gt;&lt;/span&gt;0 取出成功，1 取出失败" style="text;strokeColor=none;fillColor=none;align=left;verticalAlign=top;spacingLeft=4;spacingRight=4;overflow=hidden;rotatable=0;points=[[0,0.5],[1,0.5]];portConstraint=eastwest;whiteSpace=wrap;html=1;" parent="JWGeBvaVPIYcXlpfm2Vx-27" vertex="1">
          <mxGeometry y="26" width="390" height="26" as="geometry" />
        </mxCell>
        <mxCell id="JWGeBvaVPIYcXlpfm2Vx-32" value="+ message: string，结果提示信息" style="text;strokeColor=none;fillColor=none;align=left;verticalAlign=top;spacingLeft=4;spacingRight=4;overflow=hidden;rotatable=0;points=[[0,0.5],[1,0.5]];portConstraint=eastwest;whiteSpace=wrap;html=1;" parent="JWGeBvaVPIYcXlpfm2Vx-27" vertex="1">
          <mxGeometry y="52" width="390" height="26" as="geometry" />
        </mxCell>
        <mxCell id="JWGeBvaVPIYcXlpfm2Vx-31" value="+ result:&amp;nbsp;ItemPackage，物品包" style="text;strokeColor=none;fillColor=none;align=left;verticalAlign=top;spacingLeft=4;spacingRight=4;overflow=hidden;rotatable=0;points=[[0,0.5],[1,0.5]];portConstraint=eastwest;whiteSpace=wrap;html=1;" parent="JWGeBvaVPIYcXlpfm2Vx-27" vertex="1">
          <mxGeometry y="78" width="390" height="26" as="geometry" />
        </mxCell>
        <mxCell id="JWGeBvaVPIYcXlpfm2Vx-29" value="" style="line;strokeWidth=1;fillColor=none;align=left;verticalAlign=middle;spacingTop=-1;spacingLeft=3;spacingRight=3;rotatable=0;labelPosition=right;points=[];portConstraint=eastwest;strokeColor=inherit;" parent="JWGeBvaVPIYcXlpfm2Vx-27" vertex="1">
          <mxGeometry y="104" width="390" height="8" as="geometry" />
        </mxCell>
        <mxCell id="JWGeBvaVPIYcXlpfm2Vx-30" value="+ method(type): type" style="text;strokeColor=none;fillColor=none;align=left;verticalAlign=top;spacingLeft=4;spacingRight=4;overflow=hidden;rotatable=0;points=[[0,0.5],[1,0.5]];portConstraint=eastwest;whiteSpace=wrap;html=1;" parent="JWGeBvaVPIYcXlpfm2Vx-27" vertex="1">
          <mxGeometry y="112" width="390" height="26" as="geometry" />
        </mxCell>
        <mxCell id="JWGeBvaVPIYcXlpfm2Vx-33" value="ItemPackage" style="swimlane;fontStyle=1;align=center;verticalAlign=top;childLayout=stackLayout;horizontal=1;startSize=26;horizontalStack=0;resizeParent=1;resizeParentMax=0;resizeLast=0;collapsible=1;marginBottom=0;whiteSpace=wrap;html=1;" parent="1" vertex="1">
          <mxGeometry x="408" y="430" width="392" height="242" as="geometry" />
        </mxCell>
        <mxCell id="JWGeBvaVPIYcXlpfm2Vx-65" value="+ itemPackageId：long&lt;span style=&quot;white-space: pre;&quot;&gt;&#x9;&lt;/span&gt;包的唯一id" style="text;strokeColor=none;fillColor=none;align=left;verticalAlign=top;spacingLeft=4;spacingRight=4;overflow=hidden;rotatable=0;points=[[0,0.5],[1,0.5]];portConstraint=eastwest;whiteSpace=wrap;html=1;" parent="JWGeBvaVPIYcXlpfm2Vx-33" vertex="1">
          <mxGeometry y="26" width="392" height="26" as="geometry" />
        </mxCell>
        <mxCell id="JWGeBvaVPIYcXlpfm2Vx-34" value="+ instanceIds：List&amp;lt;long&amp;gt; 实例集合" style="text;strokeColor=none;fillColor=none;align=left;verticalAlign=top;spacingLeft=4;spacingRight=4;overflow=hidden;rotatable=0;points=[[0,0.5],[1,0.5]];portConstraint=eastwest;whiteSpace=wrap;html=1;" parent="JWGeBvaVPIYcXlpfm2Vx-33" vertex="1">
          <mxGeometry y="52" width="392" height="26" as="geometry" />
        </mxCell>
        <mxCell id="JWGeBvaVPIYcXlpfm2Vx-64" value="+ information：ItemInformation&lt;span style=&quot;white-space: pre;&quot;&gt;&#x9;&lt;/span&gt;实例说明" style="text;strokeColor=none;fillColor=none;align=left;verticalAlign=top;spacingLeft=4;spacingRight=4;overflow=hidden;rotatable=0;points=[[0,0.5],[1,0.5]];portConstraint=eastwest;whiteSpace=wrap;html=1;" parent="JWGeBvaVPIYcXlpfm2Vx-33" vertex="1">
          <mxGeometry y="78" width="392" height="26" as="geometry" />
        </mxCell>
        <mxCell id="prWdcYrloBbrFDDMd_Rt-1" value="+ averageQuality：int&lt;span style=&quot;white-space: pre;&quot;&gt;&#x9;&lt;/span&gt;平均品质" style="text;strokeColor=none;fillColor=none;align=left;verticalAlign=top;spacingLeft=4;spacingRight=4;overflow=hidden;rotatable=0;points=[[0,0.5],[1,0.5]];portConstraint=eastwest;whiteSpace=wrap;html=1;" vertex="1" parent="JWGeBvaVPIYcXlpfm2Vx-33">
          <mxGeometry y="104" width="392" height="26" as="geometry" />
        </mxCell>
        <mxCell id="JWGeBvaVPIYcXlpfm2Vx-35" value="" style="line;strokeWidth=1;fillColor=none;align=left;verticalAlign=middle;spacingTop=-1;spacingLeft=3;spacingRight=3;rotatable=0;labelPosition=right;points=[];portConstraint=eastwest;strokeColor=inherit;" parent="JWGeBvaVPIYcXlpfm2Vx-33" vertex="1">
          <mxGeometry y="130" width="392" height="8" as="geometry" />
        </mxCell>
        <mxCell id="JWGeBvaVPIYcXlpfm2Vx-36" value="+ deposit(ItemInformation): bool&lt;span style=&quot;white-space: pre;&quot;&gt;&#x9;&lt;/span&gt;存放物品" style="text;strokeColor=none;fillColor=none;align=left;verticalAlign=top;spacingLeft=4;spacingRight=4;overflow=hidden;rotatable=0;points=[[0,0.5],[1,0.5]];portConstraint=eastwest;whiteSpace=wrap;html=1;" parent="JWGeBvaVPIYcXlpfm2Vx-33" vertex="1">
          <mxGeometry y="138" width="392" height="26" as="geometry" />
        </mxCell>
        <mxCell id="JWGeBvaVPIYcXlpfm2Vx-67" value="+ deposit(long instanceId):bool 存放物品" style="text;strokeColor=none;fillColor=none;align=left;verticalAlign=top;spacingLeft=4;spacingRight=4;overflow=hidden;rotatable=0;points=[[0,0.5],[1,0.5]];portConstraint=eastwest;whiteSpace=wrap;html=1;" parent="JWGeBvaVPIYcXlpfm2Vx-33" vertex="1">
          <mxGeometry y="164" width="392" height="26" as="geometry" />
        </mxCell>
        <mxCell id="JWGeBvaVPIYcXlpfm2Vx-68" value="+ deposit(ItemPackage):bool 存放物品" style="text;strokeColor=none;fillColor=none;align=left;verticalAlign=top;spacingLeft=4;spacingRight=4;overflow=hidden;rotatable=0;points=[[0,0.5],[1,0.5]];portConstraint=eastwest;whiteSpace=wrap;html=1;" parent="JWGeBvaVPIYcXlpfm2Vx-33" vertex="1">
          <mxGeometry y="190" width="392" height="26" as="geometry" />
        </mxCell>
        <mxCell id="JWGeBvaVPIYcXlpfm2Vx-66" value="+&amp;nbsp;takeout(int number):List&amp;lt;ItemInstance&amp;gt; 获取指定数量的物品" style="text;strokeColor=none;fillColor=none;align=left;verticalAlign=top;spacingLeft=4;spacingRight=4;overflow=hidden;rotatable=0;points=[[0,0.5],[1,0.5]];portConstraint=eastwest;whiteSpace=wrap;html=1;" parent="JWGeBvaVPIYcXlpfm2Vx-33" vertex="1">
          <mxGeometry y="216" width="392" height="26" as="geometry" />
        </mxCell>
        <mxCell id="JWGeBvaVPIYcXlpfm2Vx-61" value="" style="group" parent="1" vertex="1" connectable="0">
          <mxGeometry x="170" y="-170" width="440" height="126" as="geometry" />
        </mxCell>
        <mxCell id="JWGeBvaVPIYcXlpfm2Vx-38" value="Assets" style="childLayout=tableLayout;recursiveResize=0;strokeColor=#98bf21;fillColor=#A7C942;shadow=1;" parent="JWGeBvaVPIYcXlpfm2Vx-61" vertex="1">
          <mxGeometry y="30" width="440" height="96" as="geometry" />
        </mxCell>
        <mxCell id="JWGeBvaVPIYcXlpfm2Vx-39" style="shape=tableRow;horizontal=0;startSize=0;swimlaneHead=0;swimlaneBody=0;top=0;left=0;bottom=0;right=0;dropTarget=0;collapsible=0;recursiveResize=0;expand=0;fontStyle=0;strokeColor=inherit;fillColor=#ffffff;" parent="JWGeBvaVPIYcXlpfm2Vx-38" vertex="1">
          <mxGeometry width="440" height="33" as="geometry" />
        </mxCell>
        <mxCell id="JWGeBvaVPIYcXlpfm2Vx-40" value="空间类型" style="connectable=0;recursiveResize=0;strokeColor=inherit;fillColor=#A7C942;align=center;fontStyle=1;fontColor=#FFFFFF;html=1;" parent="JWGeBvaVPIYcXlpfm2Vx-39" vertex="1">
          <mxGeometry width="146" height="33" as="geometry">
            <mxRectangle width="146" height="33" as="alternateBounds" />
          </mxGeometry>
        </mxCell>
        <mxCell id="JWGeBvaVPIYcXlpfm2Vx-41" value="值" style="connectable=0;recursiveResize=0;strokeColor=inherit;fillColor=#A7C942;align=center;fontStyle=1;fontColor=#FFFFFF;html=1;" parent="JWGeBvaVPIYcXlpfm2Vx-39" vertex="1">
          <mxGeometry x="146" width="148" height="33" as="geometry">
            <mxRectangle width="148" height="33" as="alternateBounds" />
          </mxGeometry>
        </mxCell>
        <mxCell id="JWGeBvaVPIYcXlpfm2Vx-42" value="说明" style="connectable=0;recursiveResize=0;strokeColor=inherit;fillColor=#A7C942;align=center;fontStyle=1;fontColor=#FFFFFF;html=1;" parent="JWGeBvaVPIYcXlpfm2Vx-39" vertex="1">
          <mxGeometry x="294" width="146" height="33" as="geometry">
            <mxRectangle width="146" height="33" as="alternateBounds" />
          </mxGeometry>
        </mxCell>
        <mxCell id="JWGeBvaVPIYcXlpfm2Vx-43" value="" style="shape=tableRow;horizontal=0;startSize=0;swimlaneHead=0;swimlaneBody=0;top=0;left=0;bottom=0;right=0;dropTarget=0;collapsible=0;recursiveResize=0;expand=0;fontStyle=0;strokeColor=inherit;fillColor=#ffffff;" parent="JWGeBvaVPIYcXlpfm2Vx-38" vertex="1">
          <mxGeometry y="33" width="440" height="32" as="geometry" />
        </mxCell>
        <mxCell id="JWGeBvaVPIYcXlpfm2Vx-44" value="物理空间" style="connectable=0;recursiveResize=0;strokeColor=inherit;fillColor=inherit;align=center;whiteSpace=wrap;html=1;" parent="JWGeBvaVPIYcXlpfm2Vx-43" vertex="1">
          <mxGeometry width="146" height="32" as="geometry">
            <mxRectangle width="146" height="32" as="alternateBounds" />
          </mxGeometry>
        </mxCell>
        <mxCell id="JWGeBvaVPIYcXlpfm2Vx-45" value="PhysicalSpace" style="connectable=0;recursiveResize=0;strokeColor=inherit;fillColor=inherit;align=center;whiteSpace=wrap;html=1;" parent="JWGeBvaVPIYcXlpfm2Vx-43" vertex="1">
          <mxGeometry x="146" width="148" height="32" as="geometry">
            <mxRectangle width="148" height="32" as="alternateBounds" />
          </mxGeometry>
        </mxCell>
        <mxCell id="JWGeBvaVPIYcXlpfm2Vx-46" value="物理空间，比如说背包" style="connectable=0;recursiveResize=0;strokeColor=inherit;fillColor=inherit;align=center;whiteSpace=wrap;html=1;" parent="JWGeBvaVPIYcXlpfm2Vx-43" vertex="1">
          <mxGeometry x="294" width="146" height="32" as="geometry">
            <mxRectangle width="146" height="32" as="alternateBounds" />
          </mxGeometry>
        </mxCell>
        <mxCell id="JWGeBvaVPIYcXlpfm2Vx-47" value="" style="shape=tableRow;horizontal=0;startSize=0;swimlaneHead=0;swimlaneBody=0;top=0;left=0;bottom=0;right=0;dropTarget=0;collapsible=0;recursiveResize=0;expand=0;fontStyle=1;strokeColor=inherit;fillColor=#EAF2D3;" parent="JWGeBvaVPIYcXlpfm2Vx-38" vertex="1">
          <mxGeometry y="65" width="440" height="31" as="geometry" />
        </mxCell>
        <mxCell id="JWGeBvaVPIYcXlpfm2Vx-48" value="虚拟空间" style="connectable=0;recursiveResize=0;strokeColor=inherit;fillColor=inherit;whiteSpace=wrap;html=1;" parent="JWGeBvaVPIYcXlpfm2Vx-47" vertex="1">
          <mxGeometry width="146" height="31" as="geometry">
            <mxRectangle width="146" height="31" as="alternateBounds" />
          </mxGeometry>
        </mxCell>
        <mxCell id="JWGeBvaVPIYcXlpfm2Vx-49" value="VirtualSpace" style="connectable=0;recursiveResize=0;strokeColor=inherit;fillColor=inherit;whiteSpace=wrap;html=1;" parent="JWGeBvaVPIYcXlpfm2Vx-47" vertex="1">
          <mxGeometry x="146" width="148" height="31" as="geometry">
            <mxRectangle width="148" height="31" as="alternateBounds" />
          </mxGeometry>
        </mxCell>
        <mxCell id="JWGeBvaVPIYcXlpfm2Vx-50" value="虚拟空间，比如说储物袋" style="connectable=0;recursiveResize=0;strokeColor=inherit;fillColor=inherit;whiteSpace=wrap;html=1;" parent="JWGeBvaVPIYcXlpfm2Vx-47" vertex="1">
          <mxGeometry x="294" width="146" height="31" as="geometry">
            <mxRectangle width="146" height="31" as="alternateBounds" />
          </mxGeometry>
        </mxCell>
        <mxCell id="JWGeBvaVPIYcXlpfm2Vx-59" value="空间类型" style="text;html=1;strokeColor=none;fillColor=none;align=center;verticalAlign=middle;whiteSpace=wrap;rounded=0;" parent="JWGeBvaVPIYcXlpfm2Vx-61" vertex="1">
          <mxGeometry x="210" width="60" height="30" as="geometry" />
        </mxCell>
        <mxCell id="JWGeBvaVPIYcXlpfm2Vx-62" value="灵气限制" style="rounded=0;whiteSpace=wrap;html=1;" parent="1" vertex="1">
          <mxGeometry x="654" y="250" width="120" height="60" as="geometry" />
        </mxCell>
      </root>
    </mxGraphModel>
  </diagram>
</mxfile>
